<svg xmlns="http://www.w3.org/2000/svg" xmlns:xlink="http://www.w3.org/1999/xlink" width="820" height="860" viewBox="390 320 820 860" role="img" aria-labelledby="entix-title">
<title id="entix-title">Entix Jewellery</title>
<defs>
<clipPath id="clip-0">
<path clip-rule="nonzero" d="M 437 364.417969 L 1164 364.417969 L 1164 1135.417969 L 437 1135.417969 Z M 437 364.417969 "/>
</clipPath>
</defs>
<g clip-path="url(#clip-0)">
<path fill-rule="evenodd" fill="rgb(65.098572%, 58.81958%, 39.219666%)" fill-opacity="1" d="M 437.621094 1029.609375 C 657.636719 1015.078125 633.984375 923.03125 722.328125 779.960938 C 613.460938 799.054688 599.78125 866.601562 554.753906 956.371094 C 587.8125 868.308594 604.34375 796.492188 692.976562 774.265625 C 498.324219 784.800781 525.96875 890.253906 437.621094 1029.609375 Z M 1153.804688 1135.632812 C 1020.140625 925.308594 1062.324219 765.992188 768.210938 750.039062 C 902.15625 783.667969 926.953125 891.964844 976.828125 1025.335938 C 908.714844 889.683594 888.191406 787.371094 723.753906 758.871094 C 857.132812 974.613281 821.507812 1113.6875 1153.804688 1135.632812 Z M 447.773438 470.457031 C 536.117188 609.820312 508.476562 715.265625 703.125 725.8125 C 614.492188 703.585938 597.960938 631.765625 564.902344 543.707031 C 609.933594 633.472656 623.609375 701.015625 732.480469 720.113281 C 644.128906 577.042969 667.785156 484.996094 447.773438 470.457031 Z M 1163.953125 364.441406 C 1030.300781 574.765625 1072.476562 734.082031 778.363281 750.039062 C 912.308594 716.410156 937.097656 608.113281 986.976562 474.730469 C 918.863281 610.390625 898.339844 712.703125 733.90625 741.203125 C 867.28125 525.460938 831.65625 386.386719 1163.953125 364.441406 "/>
</g>
</svg>
