<svg xmlns="http://www.w3.org/2000/svg" xmlns:xlink="http://www.w3.org/1999/xlink" width="722" height="251" viewBox="389 633 722 251" role="img" aria-labelledby="entix-title">
<title id="entix-title">Entix Jewellery</title>
<defs>
<g>
<g id="glyph-0-0">
<path d="M 22.671875 -95.359375 L 22.671875 -1.625 L 56.890625 -1.625 C 65.660156 -1.625 72.847656 -3.78125 78.453125 -8.09375 C 84.054688 -12.414062 88.679688 -19.707031 92.328125 -29.96875 L 87.671875 0 L 7.09375 0 L 7.09375 -142.9375 L 88.890625 -142.9375 L 88.890625 -126.75 C 84.160156 -131.332031 79.566406 -134.671875 75.109375 -136.765625 C 70.660156 -138.859375 65.632812 -140.175781 60.03125 -140.71875 C 54.425781 -141.257812 47.507812 -141.53125 39.28125 -141.53125 L 22.671875 -141.53125 L 22.671875 -108.71875 C 22.671875 -99.539062 24.222656 -92.519531 27.328125 -87.65625 C 30.429688 -82.800781 35.085938 -79.53125 41.296875 -77.84375 C 47.503906 -76.15625 55.269531 -75.3125 64.59375 -75.3125 L 64.59375 -59.328125 C 61.625 -62.703125 58.078125 -65.363281 53.953125 -67.3125 C 49.835938 -69.269531 45.65625 -71.296875 41.40625 -73.390625 C 37.15625 -75.484375 33.34375 -78.179688 29.96875 -81.484375 C 26.59375 -84.796875 24.160156 -89.421875 22.671875 -95.359375 Z M 22.671875 -95.359375 "/>
</g>
<g id="glyph-0-1">
</g>
<g id="glyph-0-2">
<path d="M 7.09375 -142.9375 L 22.265625 -142.9375 C 33.335938 -142.9375 43.160156 -139.191406 51.734375 -131.703125 C 60.304688 -124.210938 67.492188 -114.597656 73.296875 -102.859375 C 79.234375 -91.785156 83.957031 -79.597656 87.46875 -66.296875 C 90.976562 -53.003906 93.472656 -39.8125 94.953125 -26.71875 L 94.953125 -142.9375 L 110.140625 -142.9375 L 110.140625 0 L 94.953125 0 C 94.953125 -10.800781 94.109375 -22.207031 92.421875 -34.21875 C 90.734375 -46.226562 88.234375 -58.101562 84.921875 -69.84375 C 81.617188 -81.59375 77.472656 -92.328125 72.484375 -102.046875 C 66.410156 -113.648438 59.253906 -123.128906 51.015625 -130.484375 C 42.785156 -137.847656 33.203125 -141.53125 22.265625 -141.53125 L 22.265625 0 L 7.09375 0 Z M 7.09375 -142.9375 "/>
</g>
<g id="glyph-0-3">
<path d="M 55.28125 0 L 55.28125 -141.53125 C 48.125 -141.53125 41.742188 -141.222656 36.140625 -140.609375 C 30.535156 -140.003906 25.40625 -138.722656 20.75 -136.765625 C 16.09375 -134.804688 11.539062 -131.671875 7.09375 -127.359375 L 7.09375 -143.140625 L 119.046875 -143.140625 L 119.046875 -127.359375 C 114.460938 -131.671875 109.84375 -134.804688 105.1875 -136.765625 C 100.53125 -138.722656 95.429688 -140.003906 89.890625 -140.609375 C 84.359375 -141.222656 78.015625 -141.53125 70.859375 -141.53125 L 70.859375 0 Z M 55.28125 0 "/>
</g>
<g id="glyph-0-4">
<path d="M 7.09375 0 L 7.09375 -142.9375 L 22.265625 -142.9375 L 22.265625 0 Z M 7.09375 0 "/>
</g>
<g id="glyph-0-5">
<path d="M 115.40625 -141.53125 C 108.519531 -141.53125 102.476562 -139.941406 97.28125 -136.765625 C 92.082031 -133.597656 87.523438 -129.210938 83.609375 -123.609375 C 79.703125 -118.003906 76.160156 -111.625 72.984375 -104.46875 C 69.816406 -97.320312 66.816406 -89.765625 63.984375 -81.796875 L 115.40625 0 L 97.1875 0 L 57.5 -62.96875 C 54.664062 -54.863281 51.695312 -47.03125 48.59375 -39.46875 C 45.488281 -31.914062 42.007812 -25.171875 38.15625 -19.234375 C 34.3125 -13.296875 29.890625 -8.601562 24.890625 -5.15625 C 19.898438 -1.71875 13.96875 0 7.09375 0 L 7.09375 -1.21875 C 13.570312 -1.21875 19.269531 -2.972656 24.1875 -6.484375 C 29.113281 -9.992188 33.429688 -14.75 37.140625 -20.75 C 40.859375 -26.757812 44.269531 -33.539062 47.375 -41.09375 C 50.476562 -48.65625 53.515625 -56.488281 56.484375 -64.59375 L 7.09375 -143.140625 L 25.71875 -143.140625 L 62.96875 -83.625 C 65.800781 -91.582031 68.835938 -99.101562 72.078125 -106.1875 C 75.316406 -113.28125 78.960938 -119.625 83.015625 -125.21875 C 87.066406 -130.820312 91.753906 -135.207031 97.078125 -138.375 C 102.410156 -141.550781 108.519531 -143.140625 115.40625 -143.140625 Z M 115.40625 -141.53125 "/>
</g>
<g id="glyph-1-0">
<path d="M 21.171875 -33.96875 C 19.410156 -33.96875 18.148438 -33.679688 17.390625 -33.109375 C 16.628906 -32.535156 16.25 -31.4375 16.25 -29.8125 L 16.25 -10.515625 C 16.25 -7.367188 15.46875 -4.703125 13.90625 -2.515625 C 12.351562 -0.328125 10.019531 0.765625 6.90625 0.765625 C 5.21875 0.765625 3.832031 0.398438 2.75 -0.328125 C 1.664062 -1.054688 1.125 -1.960938 1.125 -3.046875 C 1.125 -3.796875 1.367188 -4.414062 1.859375 -4.90625 C 2.347656 -5.394531 2.945312 -5.640625 3.65625 -5.640625 C 4.40625 -5.640625 4.984375 -5.425781 5.390625 -5 C 5.796875 -4.582031 6.25 -3.945312 6.75 -3.09375 C 7.09375 -2.414062 7.425781 -1.90625 7.75 -1.5625 C 8.070312 -1.226562 8.46875 -1.0625 8.9375 -1.0625 C 9.507812 -1.0625 9.957031 -1.398438 10.28125 -2.078125 C 10.601562 -2.753906 10.765625 -4.078125 10.765625 -6.046875 L 10.765625 -29.859375 C 10.765625 -31.453125 10.347656 -32.535156 9.515625 -33.109375 C 8.691406 -33.679688 7.382812 -33.96875 5.59375 -33.96875 L 5.59375 -34.890625 L 21.171875 -34.890625 Z M 21.171875 -33.96875 "/>
</g>
<g id="glyph-1-1">
<path d="M 29.90625 -27.171875 L 29.046875 -27.171875 C 28.710938 -29.097656 28.085938 -30.523438 27.171875 -31.453125 C 26.253906 -32.390625 24.984375 -32.859375 23.359375 -32.859375 L 12.34375 -32.859375 L 12.34375 -19.40625 L 21.375 -19.40625 C 23 -19.40625 24.148438 -19.8125 24.828125 -20.625 C 25.503906 -21.4375 25.863281 -22.722656 25.90625 -24.484375 L 26.8125 -24.484375 L 26.8125 -12.1875 L 25.90625 -12.1875 C 25.90625 -13.945312 25.566406 -15.25 24.890625 -16.09375 C 24.210938 -16.945312 23.007812 -17.375 21.28125 -17.375 L 12.34375 -17.375 L 12.34375 -4.625 C 12.34375 -2.894531 13.019531 -2.03125 14.375 -2.03125 L 23.3125 -2.03125 C 25.175781 -2.03125 26.816406 -2.597656 28.234375 -3.734375 C 29.660156 -4.867188 30.8125 -6.519531 31.6875 -8.6875 L 32.75 -8.6875 L 29.90625 0 L 1.828125 0 L 1.828125 -0.921875 C 3.585938 -0.921875 4.863281 -1.210938 5.65625 -1.796875 C 6.457031 -2.390625 6.859375 -3.5 6.859375 -5.125 L 6.859375 -30.109375 C 6.859375 -31.460938 6.457031 -32.441406 5.65625 -33.046875 C 4.863281 -33.660156 3.585938 -33.96875 1.828125 -33.96875 L 1.828125 -34.890625 L 29.5 -34.890625 Z M 29.90625 -27.171875 "/>
</g>
<g id="glyph-1-2">
<path d="M 13.71875 -33.96875 C 11.644531 -33.90625 10.609375 -33.160156 10.609375 -31.734375 C 10.609375 -31.265625 10.691406 -30.757812 10.859375 -30.21875 C 11.035156 -29.675781 11.425781 -28.554688 12.03125 -26.859375 L 18.390625 -9.1875 L 18.484375 -9.1875 L 24.078125 -24.734375 L 22.09375 -29.90625 C 21.6875 -30.957031 21.320312 -31.742188 21 -32.265625 C 20.675781 -32.796875 20.242188 -33.195312 19.703125 -33.46875 C 19.160156 -33.738281 18.398438 -33.90625 17.421875 -33.96875 L 17.421875 -34.890625 L 31.28125 -34.890625 L 31.28125 -33.96875 C 30.226562 -33.875 29.390625 -33.644531 28.765625 -33.28125 C 28.140625 -32.925781 27.828125 -32.328125 27.828125 -31.484375 C 27.828125 -30.429688 28.132812 -29.160156 28.75 -27.671875 L 35.859375 -9.1875 L 42.5625 -28.078125 C 42.925781 -29.097656 43.160156 -29.816406 43.265625 -30.234375 C 43.367188 -30.660156 43.421875 -31.128906 43.421875 -31.640625 C 43.421875 -33.160156 42.203125 -33.9375 39.765625 -33.96875 L 39.765625 -34.890625 L 49.875 -34.890625 L 49.875 -33.96875 C 48.71875 -33.9375 47.785156 -33.460938 47.078125 -32.546875 C 46.367188 -31.640625 45.570312 -29.929688 44.6875 -27.421875 L 34.734375 0.71875 L 33.765625 0.71875 L 25.296875 -21.578125 L 17.171875 0.71875 L 16.359375 0.71875 L 5.328125 -29.203125 C 4.785156 -30.660156 4.300781 -31.707031 3.875 -32.34375 C 3.457031 -32.988281 3.007812 -33.40625 2.53125 -33.59375 C 2.0625 -33.78125 1.335938 -33.90625 0.359375 -33.96875 L 0.359375 -34.890625 L 13.71875 -34.890625 Z M 13.71875 -33.96875 "/>
</g>
<g id="glyph-1-3">
<path d="M 17.78125 -33.96875 C 16.019531 -33.96875 14.753906 -33.6875 13.984375 -33.125 C 13.222656 -32.570312 12.84375 -31.453125 12.84375 -29.765625 L 12.84375 -4.265625 C 12.84375 -3.554688 12.988281 -3.046875 13.28125 -2.734375 C 13.570312 -2.429688 14.054688 -2.28125 14.734375 -2.28125 L 22.296875 -2.28125 C 24.054688 -2.28125 25.507812 -2.507812 26.65625 -2.96875 C 27.8125 -3.425781 28.800781 -4.171875 29.625 -5.203125 C 30.457031 -6.234375 31.265625 -7.695312 32.046875 -9.59375 L 32.90625 -9.296875 L 29.96875 0 L 2.140625 0 L 2.140625 -0.921875 L 2.484375 -0.921875 C 4.210938 -0.921875 5.457031 -1.222656 6.21875 -1.828125 C 6.976562 -2.441406 7.359375 -3.539062 7.359375 -5.125 L 7.359375 -29.8125 C 7.359375 -31.363281 6.960938 -32.441406 6.171875 -33.046875 C 5.378906 -33.660156 4.132812 -33.96875 2.4375 -33.96875 L 2.140625 -33.96875 L 2.140625 -34.890625 L 17.78125 -34.890625 Z M 17.78125 -33.96875 "/>
</g>
<g id="glyph-1-4">
<path d="M 30.0625 -25.796875 C 30.0625 -23.660156 29.332031 -21.820312 27.875 -20.28125 C 26.425781 -18.75 24.210938 -17.609375 21.234375 -16.859375 L 29.296875 -6.859375 C 30.285156 -5.640625 31.117188 -4.664062 31.796875 -3.9375 C 32.472656 -3.207031 33.304688 -2.546875 34.296875 -1.953125 C 35.296875 -1.359375 36.40625 -1.015625 37.625 -0.921875 L 37.625 0 L 28.546875 0 L 15.390625 -16.359375 L 12.03125 -16.359375 L 12.03125 -5.03125 C 12.03125 -3.539062 12.410156 -2.484375 13.171875 -1.859375 C 13.941406 -1.234375 15.140625 -0.921875 16.765625 -0.921875 L 16.96875 -0.921875 L 16.96875 0 L 1.734375 0 L 1.734375 -0.921875 C 3.359375 -0.921875 4.566406 -1.207031 5.359375 -1.78125 C 6.148438 -2.351562 6.546875 -3.382812 6.546875 -4.875 L 6.546875 -30.109375 C 6.546875 -31.460938 6.148438 -32.441406 5.359375 -33.046875 C 4.566406 -33.660156 3.359375 -33.96875 1.734375 -33.96875 L 1.734375 -34.890625 L 18.03125 -34.890625 C 21.34375 -34.890625 24.175781 -34.144531 26.53125 -32.65625 C 28.882812 -31.164062 30.0625 -28.878906 30.0625 -25.796875 Z M 12.03125 -32.203125 L 12.03125 -18.078125 L 13.3125 -18.078125 C 16.726562 -18.078125 19.316406 -18.742188 21.078125 -20.078125 C 22.835938 -21.421875 23.71875 -23.273438 23.71875 -25.640625 C 23.71875 -27.710938 23.046875 -29.472656 21.703125 -30.921875 C 20.367188 -32.378906 18.484375 -33.109375 16.046875 -33.109375 C 14.722656 -33.109375 13.382812 -32.804688 12.03125 -32.203125 Z M 12.03125 -32.203125 "/>
</g>
<g id="glyph-1-5">
<path d="M 16.09375 -33.96875 C 14.570312 -33.96875 13.53125 -33.847656 12.96875 -33.609375 C 12.414062 -33.378906 12.140625 -32.976562 12.140625 -32.40625 C 12.140625 -31.726562 12.628906 -30.625 13.609375 -29.09375 L 21.4375 -17.3125 L 27.734375 -27.171875 C 29.523438 -29.941406 30.421875 -31.71875 30.421875 -32.5 C 30.421875 -33.070312 30.125 -33.457031 29.53125 -33.65625 C 28.9375 -33.863281 28.015625 -33.96875 26.765625 -33.96875 L 26.765625 -34.890625 L 38.546875 -34.890625 L 38.546875 -33.96875 C 36.847656 -33.96875 35.429688 -33.484375 34.296875 -32.515625 C 33.171875 -31.554688 31.8125 -29.804688 30.21875 -27.265625 L 22.390625 -14.984375 L 22.390625 -5.078125 C 22.390625 -3.890625 22.582031 -3.007812 22.96875 -2.4375 C 23.363281 -1.863281 23.925781 -1.472656 24.65625 -1.265625 C 25.382812 -1.066406 26.410156 -0.953125 27.734375 -0.921875 L 27.734375 0 L 11.53125 0 L 11.53125 -0.921875 L 11.984375 -0.921875 C 13.816406 -0.921875 15.09375 -1.238281 15.8125 -1.875 C 16.539062 -2.519531 16.90625 -3.757812 16.90625 -5.59375 L 16.90625 -14.625 L 6.25 -30.46875 C 5.539062 -31.519531 4.945312 -32.28125 4.46875 -32.75 C 4 -33.226562 3.484375 -33.550781 2.921875 -33.71875 C 2.359375 -33.882812 1.585938 -33.96875 0.609375 -33.96875 L 0.609375 -34.890625 L 16.09375 -34.890625 Z M 16.09375 -33.96875 "/>
</g>
</g>
<clipPath id="clip-0">
<rect x="0" y="0" width="722" height="204"/>
</clipPath>
<g id="source-5" clip-path="url(#clip-0)">
<g fill="rgb(65.098572%, 58.81958%, 39.219666%)" fill-opacity="1">
<use xlink:href="#glyph-0-0" x="0.695602" y="152.410645"/>
</g>
<g fill="rgb(65.098572%, 58.81958%, 39.219666%)" fill-opacity="1">
<use xlink:href="#glyph-0-1" x="100.109349" y="152.410645"/>
</g>
<g fill="rgb(65.098572%, 58.81958%, 39.219666%)" fill-opacity="1">
<use xlink:href="#glyph-0-2" x="156.599041" y="152.410645"/>
</g>
<g fill="rgb(65.098572%, 58.81958%, 39.219666%)" fill-opacity="1">
<use xlink:href="#glyph-0-1" x="273.830325" y="152.410645"/>
</g>
<g fill="rgb(65.098572%, 58.81958%, 39.219666%)" fill-opacity="1">
<use xlink:href="#glyph-0-3" x="330.320006" y="152.410645"/>
</g>
<g fill="rgb(65.098572%, 58.81958%, 39.219666%)" fill-opacity="1">
<use xlink:href="#glyph-0-1" x="456.460053" y="152.410645"/>
</g>
<g fill="rgb(65.098572%, 58.81958%, 39.219666%)" fill-opacity="1">
<use xlink:href="#glyph-0-4" x="512.949756" y="152.410645"/>
</g>
<g fill="rgb(65.098572%, 58.81958%, 39.219666%)" fill-opacity="1">
<use xlink:href="#glyph-0-1" x="542.30821" y="152.410645"/>
</g>
<g fill="rgb(65.098572%, 58.81958%, 39.219666%)" fill-opacity="1">
<use xlink:href="#glyph-0-5" x="598.797867" y="152.410645"/>
</g>
</g>
<clipPath id="clip-1">
<rect x="0" y="0" width="546" height="54"/>
</clipPath>
<g id="source-8" clip-path="url(#clip-1)">
<g fill="rgb(65.098572%, 58.81958%, 39.219666%)" fill-opacity="1">
<use xlink:href="#glyph-1-0" x="2.79561" y="38.278681"/>
</g>
<g fill="rgb(65.098572%, 58.81958%, 39.219666%)" fill-opacity="1">
<use xlink:href="#glyph-1-1" x="49.561063" y="38.278681"/>
</g>
<g fill="rgb(65.098572%, 58.81958%, 39.219666%)" fill-opacity="1">
<use xlink:href="#glyph-1-2" x="107.952073" y="38.278681"/>
</g>
<g fill="rgb(65.098572%, 58.81958%, 39.219666%)" fill-opacity="1">
<use xlink:href="#glyph-1-1" x="182.740625" y="38.278681"/>
</g>
<g fill="rgb(65.098572%, 58.81958%, 39.219666%)" fill-opacity="1">
<use xlink:href="#glyph-1-3" x="241.131635" y="38.278681"/>
</g>
<g fill="rgb(65.098572%, 58.81958%, 39.219666%)" fill-opacity="1">
<use xlink:href="#glyph-1-3" x="299.522644" y="38.278681"/>
</g>
<g fill="rgb(65.098572%, 58.81958%, 39.219666%)" fill-opacity="1">
<use xlink:href="#glyph-1-1" x="357.913654" y="38.278681"/>
</g>
<g fill="rgb(65.098572%, 58.81958%, 39.219666%)" fill-opacity="1">
<use xlink:href="#glyph-1-4" x="416.304663" y="38.278681"/>
</g>
<g fill="rgb(65.098572%, 58.81958%, 39.219666%)" fill-opacity="1">
<use xlink:href="#glyph-1-5" x="479.975341" y="38.278681"/>
</g>
</g>
</defs>
<use xlink:href="#source-5" transform="matrix(1, 0, 0, 1, 389, 633)"/>
<use xlink:href="#source-8" transform="matrix(1, 0, 0, 1, 489, 830)"/>
</svg>
